<?xml version="1.0" encoding="utf-8"?>
<!DOCTYPE svg PUBLIC "-//W3C//DTD SVG 1.1//EN" "http://www.w3.org/Graphics/SVG/1.1/DTD/svg11.dtd">
<svg version="1.1" id="Group_1_1_" xmlns="http://www.w3.org/2000/svg" xmlns:xlink="http://www.w3.org/1999/xlink" x="0px" y="0px"
	 viewBox="0 0 98.5 109.2" enable-background="new 0 0 98.5 109.2" xml:space="preserve">
<g id="Ellipse_1_copy_2_xA0_Image_1_">
	<path fill="#92959A" d="M50.8,10.5v12c19.8,0.8,35.8,17.2,35.8,37.3c0,20.6-16.7,37.4-37.2,37.4C28.7,97.2,12,80.5,12,59.9
		c0-1.3,0.1-2.6,0.2-3.9h-12C0.1,57.3,0,58.6,0,59.9c0,27.2,22.1,49.4,49.2,49.4c27.2,0,49.2-22.1,49.2-49.4
		C98.5,33.2,77.2,11.3,50.8,10.5z"/>
</g>
<g id="Rectangle_2_copy">
	<g>
		<polygon fill-rule="evenodd" clip-rule="evenodd" fill="#92959A" points="35.8,15 50.8,30 50.8,0 		"/>
	</g>
</g>
<g id="Layer_4">
	<path fill="#069FE3" d="M47.8,78c-8.8-0.2-16-7.4-16-16.3c0-9,7.3-16.4,16.3-16.4c7.5,0,13.9,5.2,15.7,12.2h12.6
		C74.2,44,62.6,33.7,48.6,33.7c-15.5,0-28.2,12.7-28.2,28.2c0,15.3,12.2,27.8,27.4,28.2V78z"/>
</g>
<g id="Rectangle_2_copy_2">
	<g>
		<polygon fill-rule="evenodd" clip-rule="evenodd" fill="#069FE3" points="53.8,56 68.4,72 82.7,56.3 		"/>
	</g>
</g>
</svg>
